<?xml version="1.0" standalone="no"?>
<!DOCTYPE svg PUBLIC "-//W3C//DTD SVG 20010904//EN"
 "http://www.w3.org/TR/2001/REC-SVG-20010904/DTD/svg10.dtd">
<svg version="1.0" xmlns="http://www.w3.org/2000/svg"
 width="2900.000000pt" height="2900.000000pt" viewBox="0 0 2900.000000 2900.000000"
 preserveAspectRatio="xMidYMid meet">

<g transform="translate(0.000000,2900.000000) scale(0.100000,-0.100000)"
fill="#000000" stroke="none">
<path d="M0 14500 l0 -14500 14500 0 14500 0 0 14500 0 14500 -14500 0 -14500
0 0 -14500z m17710 11587 c19 -3 53 -8 75 -11 22 -2 51 -7 65 -10 14 -3 42 -8
62 -10 21 -3 41 -7 46 -10 4 -2 26 -7 47 -10 22 -3 64 -12 93 -20 28 -8 52
-12 52 -9 0 3 6 0 14 -6 8 -6 18 -11 22 -10 5 1 12 0 17 -1 4 -1 10 -3 15 -5
4 -1 20 -7 35 -13 16 -7 32 -10 37 -7 5 3 11 1 15 -5 4 -6 10 -8 15 -5 5 3 11
1 15 -5 4 -6 11 -8 16 -5 5 4 9 2 9 -4 0 -7 29 -18 70 -26 3 0 15 -6 28 -13
12 -7 22 -10 22 -7 0 3 10 -1 23 -10 13 -8 27 -12 30 -8 4 3 7 2 7 -4 0 -10
46 -28 63 -25 4 1 7 -3 7 -9 0 -5 5 -7 10 -4 6 3 10 1 10 -5 0 -6 5 -8 10 -5
6 3 10 1 10 -5 0 -6 5 -8 10 -5 6 3 10 1 10 -5 0 -6 5 -8 10 -5 6 3 10 1 10
-5 0 -6 4 -9 9 -6 5 3 14 -1 21 -9 7 -8 16 -12 21 -9 5 3 9 0 9 -6 0 -6 5 -8
10 -5 5 3 10 1 10 -5 0 -6 5 -8 10 -5 5 3 10 2 10 -3 0 -8 23 -21 55 -33 6 -2
18 -10 28 -19 10 -8 19 -13 20 -10 1 3 13 -5 26 -17 13 -12 27 -20 31 -18 5 3
11 -2 14 -11 3 -8 10 -13 15 -10 5 3 12 -1 15 -10 3 -8 10 -13 15 -10 5 3 12
-1 15 -10 3 -8 10 -13 15 -10 5 3 12 -1 15 -10 3 -8 10 -13 15 -10 5 3 11 -1
15 -9 3 -8 12 -15 20 -15 7 0 16 -7 20 -15 3 -8 12 -15 20 -15 7 0 16 -7 20
-15 3 -8 12 -15 20 -15 7 0 21 -11 30 -25 9 -14 20 -23 25 -21 4 3 18 -8 30
-24 12 -17 25 -29 30 -27 4 1 31 -24 60 -55 29 -32 58 -58 64 -58 15 0 57 -41
57 -56 0 -7 27 -37 60 -67 33 -29 60 -59 60 -65 0 -6 11 -19 25 -28 14 -9 25
-22 25 -30 0 -8 9 -19 20 -26 11 -7 20 -19 20 -26 0 -7 7 -15 15 -18 8 -4 15
-13 15 -20 0 -8 7 -17 15 -20 8 -4 15 -13 15 -20 0 -8 7 -17 15 -20 8 -4 12
-10 9 -15 -3 -5 2 -12 10 -15 9 -3 16 -12 16 -20 0 -8 5 -14 10 -14 6 0 10 -7
10 -15 0 -8 5 -15 10 -15 6 0 10 -7 10 -15 0 -8 5 -15 11 -15 5 0 8 -4 5 -8
-3 -5 3 -18 13 -29 10 -11 22 -29 25 -41 4 -12 12 -22 17 -22 5 0 8 -3 7 -7
-3 -13 25 -63 34 -63 5 0 6 -4 3 -10 -3 -5 -1 -10 5 -10 6 0 8 -4 5 -10 -3 -5
-1 -10 6 -10 7 0 9 -3 6 -6 -3 -4 2 -18 13 -32 11 -13 17 -28 14 -33 -3 -5 0
-9 6 -9 6 0 8 -4 5 -10 -3 -5 -1 -10 5 -10 6 0 8 -4 5 -10 -3 -5 -1 -10 5 -10
6 0 8 -4 5 -10 -3 -5 -1 -10 4 -10 6 0 10 -3 9 -7 -3 -17 15 -63 25 -63 6 0 7
-3 4 -7 -4 -3 0 -17 8 -30 9 -13 13 -23 10 -23 -3 0 0 -10 7 -22 6 -13 13 -31
15 -41 2 -10 9 -28 15 -40 7 -12 13 -25 14 -29 1 -5 3 -10 4 -13 1 -3 4 -9 5
-15 1 -5 4 -12 5 -15 1 -3 4 -9 5 -15 1 -5 4 -13 5 -17 1 -5 2 -11 1 -15 0 -4
4 -20 11 -35 6 -15 10 -32 9 -37 -1 -4 4 -14 10 -22 6 -8 9 -14 6 -14 -3 0 1
-24 9 -52 8 -29 17 -69 20 -88 2 -19 7 -44 11 -55 7 -21 9 -30 17 -85 18 -121
22 -165 31 -330 4 -74 8 -136 9 -137 1 -1 715 -4 1586 -7 872 -2 1601 -6 1620
-9 19 -3 53 -8 75 -11 22 -2 51 -7 65 -10 14 -3 42 -8 62 -10 21 -3 41 -7 46
-10 4 -2 26 -7 47 -10 22 -3 64 -12 93 -20 28 -8 52 -12 52 -9 0 3 6 0 14 -6
8 -6 18 -11 22 -10 5 1 12 0 17 -1 4 -1 10 -3 15 -5 4 -1 20 -7 35 -13 16 -7
32 -10 37 -7 5 3 11 1 15 -5 4 -6 10 -8 15 -5 5 3 11 1 15 -5 4 -6 11 -8 16
-5 5 4 9 2 9 -4 0 -7 29 -18 70 -26 3 0 15 -6 28 -13 12 -7 22 -10 22 -7 0 3
10 -1 23 -10 13 -8 27 -12 30 -8 4 3 7 2 7 -4 0 -10 46 -28 63 -25 4 1 7 -3 7
-9 0 -5 5 -7 10 -4 6 3 10 1 10 -5 0 -6 5 -8 10 -5 6 3 10 1 10 -5 0 -6 5 -8
10 -5 6 3 10 1 10 -5 0 -6 5 -8 10 -5 6 3 10 1 10 -5 0 -6 4 -9 9 -6 5 3 14
-1 21 -9 7 -8 16 -12 21 -9 5 3 9 0 9 -6 0 -6 5 -8 10 -5 6 3 10 1 10 -5 0 -6
5 -8 10 -5 6 3 10 2 10 -3 0 -8 23 -21 55 -33 6 -2 17 -9 25 -16 8 -7 17 -12
20 -11 3 2 16 -7 29 -19 13 -12 27 -20 31 -18 5 3 11 -2 14 -11 3 -8 10 -13
15 -10 5 3 12 -1 15 -10 3 -8 10 -13 15 -10 5 3 12 -1 15 -10 3 -8 10 -13 15
-10 5 3 12 -1 15 -10 3 -8 10 -13 15 -10 5 3 11 -1 15 -9 3 -8 12 -15 20 -15
7 0 16 -7 20 -15 3 -8 12 -15 20 -15 7 0 16 -7 20 -15 3 -8 12 -15 20 -15 7 0
21 -11 30 -25 9 -14 20 -23 25 -21 4 3 18 -8 30 -24 12 -17 25 -29 30 -27 4 1
31 -24 60 -55 29 -32 58 -58 64 -58 15 0 57 -41 57 -56 0 -7 27 -37 60 -67 33
-29 60 -59 60 -65 0 -6 11 -19 25 -28 14 -9 25 -22 25 -30 0 -8 9 -19 20 -26
11 -7 20 -19 20 -26 0 -7 7 -15 15 -18 8 -4 15 -13 15 -20 0 -8 7 -17 15 -20
8 -4 15 -13 15 -20 0 -8 7 -17 15 -20 8 -4 12 -10 9 -15 -3 -5 2 -12 10 -15 9
-3 16 -12 16 -20 0 -8 5 -14 10 -14 6 0 10 -7 10 -15 0 -8 5 -15 10 -15 6 0
10 -7 10 -15 0 -8 5 -15 11 -15 5 0 8 -4 5 -8 -3 -5 3 -18 13 -29 10 -11 22
-29 25 -41 4 -12 12 -22 17 -22 5 0 8 -3 7 -7 -3 -13 25 -63 34 -63 5 0 6 -4
3 -10 -3 -5 -1 -10 5 -10 6 0 8 -4 5 -10 -3 -5 -1 -10 6 -10 7 0 9 -3 6 -6 -3
-4 2 -18 13 -32 11 -13 17 -28 14 -33 -3 -5 0 -9 6 -9 6 0 8 -4 5 -10 -3 -5
-1 -10 5 -10 6 0 8 -4 5 -10 -3 -5 -1 -10 5 -10 6 0 8 -4 5 -10 -3 -5 -1 -10
4 -10 6 0 10 -3 9 -7 -3 -17 15 -63 25 -63 6 0 7 -3 4 -7 -4 -3 0 -17 8 -30 9
-13 13 -23 10 -23 -3 0 0 -10 7 -22 6 -13 13 -31 15 -41 2 -10 9 -28 15 -40 7
-12 13 -25 14 -29 1 -5 3 -10 4 -13 1 -3 4 -9 5 -15 1 -5 4 -12 5 -15 1 -3 4
-9 5 -15 1 -5 4 -13 5 -17 1 -5 2 -11 1 -15 0 -4 4 -20 11 -35 6 -15 10 -32 9
-37 -1 -4 4 -14 10 -22 6 -8 9 -14 6 -14 -3 0 1 -24 9 -52 8 -29 17 -69 20
-88 2 -19 7 -44 11 -55 4 -11 8 -27 9 -35 7 -42 17 -115 30 -220 9 -71 9 -529
0 -600 -13 -105 -23 -178 -30 -220 -1 -8 -5 -24 -9 -35 -4 -11 -9 -36 -11 -55
-3 -19 -12 -59 -20 -87 -8 -29 -12 -53 -9 -53 3 0 0 -6 -6 -14 -6 -8 -11 -18
-10 -22 1 -5 -3 -22 -9 -37 -7 -15 -11 -31 -11 -35 1 -4 0 -10 -1 -14 -1 -5
-4 -12 -5 -18 -1 -5 -4 -12 -5 -15 -1 -3 -4 -9 -5 -15 -1 -5 -4 -12 -5 -15 -1
-3 -3 -8 -4 -12 -1 -5 -7 -18 -14 -30 -6 -12 -13 -30 -15 -40 -2 -10 -9 -28
-15 -40 -7 -13 -10 -23 -7 -23 3 0 -1 -10 -10 -23 -8 -13 -12 -27 -8 -30 3 -4
2 -7 -4 -7 -10 0 -28 -46 -25 -62 1 -5 -3 -8 -9 -8 -5 0 -7 -4 -4 -10 3 -5 1
-10 -5 -10 -6 0 -8 -4 -5 -10 3 -5 1 -10 -5 -10 -6 0 -8 -4 -5 -10 3 -5 1 -10
-5 -10 -6 0 -9 -4 -6 -9 3 -5 -3 -20 -14 -33 -11 -14 -16 -28 -13 -32 3 -3 1
-6 -6 -6 -7 0 -9 -4 -6 -10 3 -5 1 -10 -5 -10 -6 0 -8 -4 -5 -10 3 -5 2 -10
-3 -10 -9 0 -37 -50 -34 -62 1 -5 -2 -8 -7 -8 -5 0 -13 -10 -17 -22 -3 -12
-15 -30 -25 -41 -10 -11 -16 -24 -13 -29 3 -4 0 -8 -5 -8 -6 0 -11 -7 -11 -15
0 -8 -4 -15 -10 -15 -5 0 -10 -7 -10 -15 0 -8 -4 -15 -10 -15 -5 0 -10 -6 -10
-14 0 -8 -7 -17 -16 -20 -8 -3 -13 -10 -10 -15 3 -5 -1 -11 -9 -15 -8 -3 -15
-12 -15 -20 0 -7 -7 -16 -15 -20 -8 -3 -15 -12 -15 -20 0 -7 -7 -16 -15 -20
-8 -3 -15 -11 -15 -18 0 -7 -9 -19 -20 -26 -11 -7 -20 -18 -20 -26 0 -8 -11
-21 -25 -30 -14 -9 -25 -22 -25 -28 0 -6 -27 -36 -60 -65 -33 -30 -60 -60 -60
-66 0 -15 -41 -57 -56 -57 -6 0 -36 -26 -65 -57 -29 -32 -56 -57 -60 -56 -5 2
-18 -10 -30 -27 -12 -16 -26 -27 -30 -24 -5 2 -16 -7 -25 -21 -9 -14 -23 -25
-30 -25 -8 0 -17 -7 -20 -15 -4 -8 -13 -15 -20 -15 -8 0 -17 -7 -20 -15 -4 -8
-13 -15 -20 -15 -8 0 -17 -7 -20 -15 -4 -8 -10 -12 -15 -9 -5 3 -12 -2 -15
-10 -3 -9 -10 -13 -15 -10 -5 3 -12 -2 -15 -10 -3 -9 -10 -13 -15 -10 -5 3
-12 -2 -15 -10 -3 -9 -10 -13 -15 -10 -5 3 -12 -2 -15 -10 -3 -9 -9 -14 -14
-11 -4 2 -16 -4 -26 -13 -10 -10 -22 -18 -26 -18 -4 1 -15 -6 -25 -14 -10 -9
-20 -16 -23 -17 -22 -6 -60 -28 -60 -35 0 -5 -4 -6 -10 -3 -5 3 -10 1 -10 -5
0 -6 -4 -8 -10 -5 -5 3 -10 1 -10 -5 0 -6 -4 -9 -9 -6 -5 3 -14 -1 -21 -9 -7
-8 -16 -12 -21 -9 -5 3 -9 0 -9 -6 0 -6 -4 -8 -10 -5 -5 3 -10 1 -10 -5 0 -6
-4 -8 -10 -5 -5 3 -10 1 -10 -5 0 -6 -4 -8 -10 -5 -5 3 -10 1 -10 -5 0 -6 -4
-8 -10 -5 -5 3 -10 1 -10 -4 0 -6 -3 -10 -7 -9 -17 3 -63 -15 -63 -25 0 -6 -3
-7 -7 -4 -3 4 -17 0 -30 -8 -13 -9 -23 -13 -23 -10 0 3 -10 0 -22 -7 -13 -7
-25 -13 -28 -13 -41 -8 -70 -19 -70 -26 0 -6 -4 -8 -9 -4 -5 3 -12 1 -16 -5
-4 -6 -10 -8 -15 -5 -5 3 -11 1 -15 -5 -4 -6 -10 -8 -15 -5 -5 3 -21 0 -37 -7
-15 -6 -31 -12 -35 -13 -5 -2 -11 -4 -15 -5 -5 -1 -12 -2 -17 -1 -4 1 -14 -4
-22 -10 -8 -6 -14 -9 -14 -6 0 3 -24 -1 -52 -9 -29 -8 -71 -17 -93 -20 -21 -3
-43 -8 -47 -10 -5 -3 -25 -7 -46 -10 -20 -2 -48 -7 -62 -10 -14 -3 -43 -8 -65
-10 -22 -3 -56 -8 -75 -11 -19 -3 -782 -7 -1695 -9 -1096 -2 -1702 -7 -1784
-14 -683 -61 -1344 -379 -1821 -877 -458 -477 -741 -1095 -800 -1744 -8 -90
-10 -991 -8 -3254 3 -2949 4 -3136 21 -3235 92 -541 287 -991 603 -1390 87
-110 355 -377 464 -464 401 -316 849 -511 1390 -603 99 -17 281 -18 3163 -20
l3057 -3 0 -1450 0 -1450 -11600 0 -11600 0 0 1450 0 1450 2998 0 c3263 0
3099 -3 3384 55 652 132 1263 505 1681 1025 286 356 492 794 582 1239 58 284
55 112 55 3481 0 2744 -2 3110 -16 3230 -54 468 -208 888 -469 1280 -424 637
-1087 1084 -1833 1235 -271 55 -260 55 -2077 59 -924 2 -1696 6 -1715 9 -19 3
-53 8 -75 11 -22 2 -51 7 -65 10 -14 3 -42 8 -62 10 -21 3 -41 7 -46 10 -4 2
-26 7 -47 10 -22 3 -64 12 -92 20 -29 8 -53 12 -53 9 0 -3 -6 0 -14 6 -8 6
-18 11 -22 10 -5 -1 -12 0 -16 1 -5 1 -11 3 -15 5 -5 1 -21 7 -36 13 -16 7
-32 10 -37 7 -5 -3 -11 -1 -15 5 -4 6 -10 8 -15 5 -5 -3 -11 -1 -15 5 -4 6
-11 8 -16 5 -5 -4 -9 -2 -9 4 0 7 -29 18 -70 26 -3 0 -15 6 -27 13 -13 7 -23
10 -23 7 0 -3 -10 1 -23 10 -13 8 -27 12 -30 8 -4 -3 -7 -2 -7 4 0 10 -46 28
-62 25 -5 -1 -8 3 -8 9 0 5 -4 7 -10 4 -5 -3 -10 -1 -10 5 0 6 -4 8 -10 5 -6
-3 -10 -1 -10 5 0 6 -4 8 -10 5 -5 -3 -10 -1 -10 5 0 6 -5 8 -10 5 -6 -3 -10
-1 -10 5 0 6 -4 9 -9 6 -5 -3 -14 1 -21 9 -7 8 -16 12 -21 9 -5 -3 -9 0 -9 6
0 6 -4 8 -10 5 -5 -3 -10 -1 -10 5 0 6 -4 8 -10 5 -6 -3 -10 -2 -10 3 0 8 -23
21 -55 33 -5 2 -18 10 -28 19 -10 8 -19 13 -20 10 -1 -3 -13 5 -26 17 -13 12
-27 20 -31 18 -5 -3 -11 2 -14 11 -3 8 -10 13 -15 10 -5 -3 -12 1 -15 10 -3 8
-10 13 -15 10 -5 -3 -12 1 -15 10 -3 8 -10 13 -15 10 -5 -3 -12 1 -15 10 -3 8
-10 13 -15 10 -5 -3 -11 1 -15 9 -3 8 -12 15 -20 15 -7 0 -16 7 -20 15 -3 8
-12 15 -20 15 -7 0 -16 7 -20 15 -3 8 -12 15 -20 15 -7 0 -21 11 -30 25 -9 14
-20 23 -25 21 -4 -3 -18 8 -30 24 -12 17 -25 29 -30 27 -4 -1 -31 24 -60 56
-29 31 -58 57 -64 57 -15 0 -57 41 -57 56 0 7 -27 37 -60 67 -33 29 -60 59
-60 65 0 6 -11 19 -25 28 -14 9 -25 22 -25 30 0 8 -9 19 -20 26 -11 7 -20 19
-20 26 0 7 -7 15 -15 18 -8 4 -15 13 -15 20 0 8 -7 17 -15 20 -8 4 -15 13 -15
20 0 8 -7 17 -15 20 -8 4 -12 10 -9 15 3 5 -2 12 -10 15 -9 3 -16 12 -16 20 0
8 -4 14 -10 14 -5 0 -10 7 -10 15 0 8 -4 15 -10 15 -5 0 -10 7 -10 15 0 8 -5
15 -11 15 -5 0 -8 4 -5 8 3 5 -3 18 -13 29 -10 11 -22 29 -25 41 -4 12 -12 22
-17 22 -5 0 -8 3 -7 8 3 12 -25 62 -34 62 -5 0 -6 5 -3 10 3 6 1 10 -5 10 -6
0 -8 5 -5 10 3 6 1 10 -6 10 -7 0 -9 3 -6 6 3 4 -2 18 -13 32 -11 13 -17 28
-14 33 3 5 0 9 -6 9 -6 0 -8 5 -5 10 3 6 1 10 -5 10 -6 0 -8 5 -5 10 3 6 1 10
-5 10 -6 0 -8 5 -5 10 3 6 1 10 -4 10 -6 0 -10 3 -9 8 3 16 -15 62 -25 62 -6
0 -7 3 -4 7 4 3 0 17 -8 30 -9 13 -13 23 -10 23 3 0 0 10 -7 23 -6 12 -13 30
-15 40 -2 10 -9 28 -15 40 -7 12 -13 25 -14 30 -1 4 -3 9 -4 12 -1 3 -4 10 -5
15 -1 6 -4 12 -5 15 -1 3 -4 10 -5 15 -1 6 -4 13 -5 18 -1 4 -2 10 -1 14 0 4
-4 20 -11 35 -6 15 -10 32 -9 37 1 4 -4 14 -10 22 -6 8 -9 14 -6 14 3 0 -1 24
-9 53 -8 28 -17 68 -20 87 -2 19 -7 44 -11 55 -4 11 -8 27 -9 35 -8 48 -15
100 -30 220 -9 71 -9 529 0 600 15 120 22 172 30 220 1 8 5 24 9 35 4 11 9 36
11 55 3 19 12 59 20 88 8 28 12 52 9 52 -3 0 0 6 6 14 6 8 11 18 10 22 -1 5 3
22 9 37 7 15 11 31 11 35 -1 4 0 10 1 15 1 4 4 12 5 17 1 6 4 12 5 15 1 3 4
10 5 15 1 6 4 12 5 15 1 3 3 8 4 13 1 4 7 17 14 29 6 12 13 30 15 40 2 10 9
28 15 41 7 12 10 22 7 22 -3 0 1 10 10 23 8 13 12 27 8 30 -3 4 -2 7 4 7 10 0
28 46 25 63 -1 4 3 7 9 7 5 0 7 5 4 10 -3 6 -1 10 5 10 6 0 8 5 5 10 -3 6 -1
10 5 10 6 0 8 5 5 10 -3 6 -1 10 5 10 6 0 9 4 6 9 -3 5 3 20 14 33 11 14 16
28 13 32 -3 3 -1 6 6 6 7 0 9 5 6 10 -3 6 -1 10 5 10 6 0 8 5 5 10 -3 6 -2 10
3 10 9 0 37 50 34 63 -1 4 2 7 7 7 5 0 13 10 17 22 3 12 15 30 25 41 10 11 16
24 13 29 -3 4 0 8 5 8 6 0 11 7 11 15 0 8 5 15 10 15 6 0 10 7 10 15 0 8 5 15
10 15 6 0 10 6 10 14 0 8 7 17 16 20 8 3 13 10 10 15 -3 5 1 11 9 15 8 3 15
12 15 20 0 7 7 16 15 20 8 3 15 12 15 20 0 7 7 16 15 20 8 3 15 11 15 18 0 7
9 19 20 26 11 7 20 18 20 26 0 8 11 21 25 30 14 9 25 22 25 28 0 6 27 36 60
65 33 30 60 60 60 66 0 15 41 57 56 57 6 0 36 26 65 58 29 31 56 56 60 55 5
-2 18 10 30 27 12 16 26 27 30 24 5 -2 16 7 25 21 9 14 23 25 30 25 8 0 17 7
20 15 4 8 13 15 20 15 8 0 17 7 20 15 4 8 13 15 20 15 8 0 17 7 20 15 4 8 10
12 15 9 5 -3 12 2 15 10 3 9 10 13 15 10 5 -3 12 2 15 10 3 9 10 13 15 10 5
-3 12 2 15 10 3 9 10 13 15 10 5 -3 12 2 15 10 3 9 9 14 14 11 4 -2 16 4 26
13 10 10 24 19 29 20 6 1 17 8 25 15 8 7 17 13 20 14 22 6 60 28 60 35 0 5 4
6 10 3 6 -3 10 -1 10 5 0 6 5 8 10 5 6 -3 10 -1 10 5 0 6 4 9 9 6 5 -3 14 1
21 9 7 8 16 12 21 9 5 -3 9 0 9 6 0 6 5 8 10 5 6 -3 10 -1 10 5 0 6 5 8 10 5
6 -3 10 -1 10 5 0 6 5 8 10 5 6 -3 10 -1 10 5 0 6 5 8 10 5 6 -3 10 -1 10 4 0
6 3 10 8 9 16 -3 62 15 62 25 0 6 3 7 7 4 3 -4 17 0 30 8 13 9 23 13 23 10 0
-3 10 0 23 7 12 7 24 13 27 13 41 8 70 19 70 26 0 6 4 8 9 4 5 -3 12 -1 16 5
4 6 10 8 15 5 5 -3 11 -1 15 5 4 6 10 8 15 5 5 -3 21 0 37 7 15 6 31 12 36 13
4 2 10 4 15 5 4 1 11 2 16 1 4 -1 14 4 22 10 8 6 14 9 14 6 0 -3 24 1 53 9 28
8 70 17 92 20 21 3 43 8 47 10 5 3 25 7 46 10 20 2 48 7 62 10 24 6 69 12 140
18 19 2 96 7 170 11 74 4 136 8 136 9 1 0 5 62 9 136 9 165 13 209 31 330 8
55 10 64 17 85 4 11 9 36 11 55 3 19 12 59 20 88 8 28 12 52 9 52 -3 0 0 6 6
14 6 8 11 18 10 22 -1 5 3 22 9 37 7 15 11 31 11 35 -1 4 0 10 1 15 1 4 4 12
5 17 1 6 4 12 5 15 1 3 4 10 5 15 1 6 4 12 5 15 1 3 3 8 4 13 1 4 7 17 14 29
6 12 13 30 15 40 2 10 9 28 15 41 7 12 10 22 7 22 -3 0 1 10 10 23 8 13 12 27
8 30 -3 4 -2 7 4 7 10 0 28 46 25 63 -1 4 3 7 9 7 5 0 7 5 4 10 -3 6 -1 10 5
10 6 0 8 5 5 10 -3 6 -1 10 5 10 6 0 8 5 5 10 -3 6 -1 10 5 10 6 0 9 4 6 9 -3
5 3 20 14 33 11 14 16 28 13 32 -3 3 -1 6 6 6 7 0 9 5 6 10 -3 6 -1 10 5 10 6
0 8 5 5 10 -3 6 -2 10 3 10 9 0 37 50 34 63 -1 4 2 7 7 7 5 0 13 10 17 22 3
12 15 30 25 41 10 11 16 24 13 29 -3 4 0 8 5 8 6 0 11 7 11 15 0 8 5 15 10 15
6 0 10 7 10 15 0 8 5 15 10 15 6 0 10 6 10 14 0 8 7 17 16 20 8 3 13 10 10 15
-3 5 1 11 9 15 8 3 15 12 15 20 0 7 7 16 15 20 8 3 15 12 15 20 0 7 7 16 15
20 8 3 15 11 15 18 0 7 9 19 20 26 11 7 20 18 20 26 0 8 11 21 25 30 14 9 25
22 25 28 0 6 27 36 60 65 33 30 60 60 60 66 0 15 41 57 56 57 6 0 36 26 65 58
29 31 56 56 60 55 5 -2 18 10 30 27 12 16 26 27 30 24 5 -2 16 7 25 21 9 14
23 25 30 25 8 0 17 7 20 15 4 8 13 15 20 15 8 0 17 7 20 15 4 8 13 15 20 15 8
0 17 7 20 15 4 8 10 12 15 9 5 -3 12 2 15 10 3 9 10 13 15 10 5 -3 12 2 15 10
3 9 10 13 15 10 5 -3 12 2 15 10 3 9 10 13 15 10 5 -3 12 2 15 10 3 9 9 14 14
11 4 -2 18 6 31 18 13 12 25 20 26 17 1 -3 10 2 20 10 10 9 20 16 23 17 22 6
60 28 60 35 0 5 5 6 10 3 6 -3 10 -1 10 5 0 6 5 8 10 5 6 -3 10 -1 10 5 0 6 4
9 9 6 5 -3 14 1 21 9 7 8 16 12 21 9 5 -3 9 0 9 6 0 6 5 8 10 5 6 -3 10 -1 10
5 0 6 5 8 10 5 6 -3 10 -1 10 5 0 6 5 8 10 5 6 -3 10 -1 10 5 0 6 5 8 10 5 6
-3 10 -1 10 4 0 6 3 10 8 9 16 -3 62 15 62 25 0 6 3 7 7 4 3 -4 17 0 30 8 13
9 23 13 23 10 0 -3 10 0 23 7 12 7 24 13 27 13 41 8 70 19 70 26 0 6 4 8 9 4
5 -3 12 -1 16 5 4 6 10 8 15 5 5 -3 11 -1 15 5 4 6 10 8 15 5 5 -3 21 0 37 7
15 6 31 12 36 13 4 2 10 4 15 5 4 1 11 2 16 1 4 -1 14 4 22 10 8 6 14 9 14 6
0 -3 24 1 53 9 28 8 70 17 92 20 21 3 43 8 47 10 5 3 25 7 46 10 20 2 48 7 62
10 26 6 57 10 149 19 30 3 56 7 59 10 7 7 9209 -1 9252 -8z"/>
</g>
</svg>
